{
  "accessors": [
    {
      "bufferView": 2,
      "componentType": 5126,
      "count": 59670,
      "max": [
        3.368908405303955,
        26.150178909301758,
        2.71187686920166
      ],
      "min": [
        -3.400710105895996,
        0.0,
        -1.491803526878357
      ],
      "type": "VEC3"
    },
    {
      "bufferView": 2,
      "byteOffset": 716040,
      "componentType": 5126,
      "count": 59670,
      "max": [
        0.9999849200248718,
        0.9999950528144836,
        0.9999995231628418
      ],
      "min": [
        -0.9999849200248718,
        -0.9999920725822449,
        -0.9999914169311523
      ],
      "type": "VEC3"
    },
    {
      "bufferView": 3,
      "componentType": 5126,
      "count": 59670,
      "max": [
        0.9999997615814209,
        0.9999934434890747,
        0.9999876618385315,
        1.0
      ],
      "min": [
        -0.9999985694885254,
        -0.9999780654907227,
        -0.9998983144760132,
        -1.0
      ],
      "type": "VEC4"
    },
    {
      "bufferView": 1,
      "componentType": 5126,
      "count": 59670,
      "max": [
        0.9938957095146179,
        0.9995619058609009
      ],
      "min": [
        0.00041394581785425544,
        0.0064397454261779785
      ],
      "type": "VEC2"
    },
    {
      "bufferView": 1,
      "byteOffset": 477360,
      "componentType": 5126,
      "count": 59670,
      "max": [
        0.9938957095146179,
        0.9995619058609009
      ],
      "min": [
        0.00041394581785425544,
        0.0064397454261779785
      ],
      "type": "VEC2"
    },
    {
      "bufferView": 1,
      "byteOffset": 954720,
      "componentType": 5126,
      "count": 59670,
      "max": [
        0.9938957095146179,
        0.9995619058609009
      ],
      "min": [
        0.00041394581785425544,
        0.0064397454261779785
      ],
      "type": "VEC2"
    },
    {
      "bufferView": 1,
      "byteOffset": 1432080,
      "componentType": 5126,
      "count": 59670,
      "max": [
        0.9938957095146179,
        0.9995619058609009
      ],
      "min": [
        0.00041394581785425544,
        0.0064397454261779785
      ],
      "type": "VEC2"
    },
    {
      "bufferView": 1,
      "byteOffset": 1909440,
      "componentType": 5126,
      "count": 59670,
      "max": [
        0.9938957095146179,
        0.9995619058609009
      ],
      "min": [
        0.00041394581785425544,
        0.0064397454261779785
      ],
      "type": "VEC2"
    },
    {
      "bufferView": 0,
      "componentType": 5125,
      "count": 299397,
      "type": "SCALAR"
    }
  ],
  "asset": {
    "extras": {
      "author": "Al-Deezel (https://sketchfab.com/Al-dezel)",
      "license": "CC-BY-4.0 (http://creativecommons.org/licenses/by/4.0/)",
      "source": "https://sketchfab.com/3d-models/human-skeleton-high-detailed-8fb9bb51a519484d95e4afbe29cccffb",
      "title": "Human Skeleton high detailed"
    },
    "generator": "Sketchfab-15.37.0",
    "version": "2.0"
  },
  "bufferViews": [
    {
      "buffer": 0,
      "byteLength": 1197588,
      "name": "floatBufferViews",
      "target": 34963
    },
    {
      "buffer": 0,
      "byteLength": 2386800,
      "byteOffset": 1197588,
      "byteStride": 8,
      "name": "floatBufferViews",
      "target": 34962
    },
    {
      "buffer": 0,
      "byteLength": 1432080,
      "byteOffset": 3584388,
      "byteStride": 12,
      "name": "floatBufferViews",
      "target": 34962
    },
    {
      "buffer": 0,
      "byteLength": 954720,
      "byteOffset": 5016468,
      "byteStride": 16,
      "name": "floatBufferViews",
      "target": 34962
    }
  ],
  "buffers": [
    {
      "byteLength": 5971188,
      "uri": "scene.bin"
    }
  ],
  "extensionsRequired": [
    "KHR_materials_pbrSpecularGlossiness"
  ],
  "extensionsUsed": [
    "KHR_materials_pbrSpecularGlossiness"
  ],
  "images": [
    {
      "uri": "textures/material_0_diffuse.png"
    },
    {
      "uri": "textures/material_0_specularGlossiness.png"
    },
    {
      "uri": "textures/material_0_normal.png"
    },
    {
      "uri": "textures/material_0_occlusion.png"
    }
  ],
  "materials": [
    {
      "doubleSided": true,
      "extensions": {
        "KHR_materials_pbrSpecularGlossiness": {
          "diffuseFactor": [
            1.0,
            1.0,
            1.0,
            1.0
          ],
          "diffuseTexture": {
            "index": 0
          },
          "glossinessFactor": 1.0,
          "specularFactor": [
            1.0,
            1.0,
            1.0
          ],
          "specularGlossinessTexture": {
            "index": 1
          }
        }
      },
      "name": "material_0",
      "normalTexture": {
        "index": 2
      },
      "occlusionTexture": {
        "index": 3
      }
    }
  ],
  "meshes": [
    {
      "name": "Object_0",
      "primitives": [
        {
          "attributes": {
            "NORMAL": 1,
            "POSITION": 0,
            "TANGENT": 2,
            "TEXCOORD_0": 3,
            "TEXCOORD_1": 4,
            "TEXCOORD_2": 5,
            "TEXCOORD_3": 6,
            "TEXCOORD_4": 7
          },
          "indices": 8,
          "material": 0,
          "mode": 4
        }
      ]
    }
  ],
  "nodes": [
    {
      "children": [
        1
      ],
      "matrix": [
        1.0,
        0.0,
        0.0,
        0.0,
        0.0,
        2.220446049250313e-16,
        -1.0,
        0.0,
        0.0,
        1.0,
        2.220446049250313e-16,
        0.0,
        0.0,
        0.0,
        0.0,
        1.0
      ],
      "name": "Sketchfab_model"
    },
    {
      "children": [
        2
      ],
      "name": "root"
    },
    {
      "children": [
        3
      ],
      "matrix": [
        1.0,
        0.0,
        0.0,
        0.0,
        0.0,
        2.220446049250313e-16,
        1.0,
        0.0,
        0.0,
        -1.0,
        2.220446049250313e-16,
        0.0,
        0.0,
        0.0,
        0.0,
        1.0
      ],
      "name": "GLTF_SceneRootNode"
    },
    {
      "children": [
        4
      ],
      "matrix": [
        0.009999999776482582,
        0.0,
        0.0,
        0.0,
        0.0,
        0.009999999776482582,
        0.0,
        0.0,
        0.0,
        0.0,
        0.009999999776482582,
        0.0,
        0.0,
        0.0,
        0.0,
        1.0
      ],
      "name": "RootNode.0_0"
    },
    {
      "children": [
        5
      ],
      "name": "human_skeleton.1_1"
    },
    {
      "mesh": 0,
      "name": "Object_5"
    }
  ],
  "samplers": [
    {
      "magFilter": 9729,
      "minFilter": 9987,
      "wrapS": 10497,
      "wrapT": 10497
    }
  ],
  "scene": 0,
  "scenes": [
    {
      "name": "Sketchfab_Scene",
      "nodes": [
        0
      ]
    }
  ],
  "textures": [
    {
      "sampler": 0,
      "source": 0
    },
    {
      "sampler": 0,
      "source": 1
    },
    {
      "sampler": 0,
      "source": 2
    },
    {
      "sampler": 0,
      "source": 3
    }
  ]
}
